<svg width="30" height="30" viewBox="0 0 30 30" fill="none" xmlns="http://www.w3.org/2000/svg">
<g filter="url(#filter0_dd_18370_9)">
<path d="M25.5 2.75V19.25C25.5 19.875 25.2812 20.4062 24.8438 20.8438C24.4062 21.2812 23.875 21.5 23.25 21.5H19.2656V13.2031H22.0781L22.5 10.0156H19.2656V8C19.2656 7.5 19.3594 7.125 19.5469 6.875C19.7969 6.59375 20.2188 6.45312 20.8125 6.45312H22.5V3.64062C21.8438 3.54688 21.0312 3.5 20.0625 3.5C18.8125 3.5 17.8125 3.875 17.0625 4.625C16.3438 5.34375 15.9844 6.35938 15.9844 7.67188V10.0156H13.125V13.2031H15.9844V21.5H6.75C6.125 21.5 5.59375 21.2812 5.15625 20.8438C4.71875 20.4062 4.5 19.875 4.5 19.25V2.75C4.5 2.125 4.71875 1.59375 5.15625 1.15625C5.59375 0.71875 6.125 0.5 6.75 0.5H23.25C23.875 0.5 24.4062 0.71875 24.8438 1.15625C25.2812 1.59375 25.5 2.125 25.5 2.75Z" fill="url(#paint0_linear_18370_9)"/>
</g>
<defs>
<filter id="filter0_dd_18370_9" x="0.5" y="0.5" width="29" height="29" filterUnits="userSpaceOnUse" color-interpolation-filters="sRGB">
<feFlood flood-opacity="0" result="BackgroundImageFix"/>
<feColorMatrix in="SourceAlpha" type="matrix" values="0 0 0 0 0 0 0 0 0 0 0 0 0 0 0 0 0 0 127 0" result="hardAlpha"/>
<feOffset dy="4"/>
<feGaussianBlur stdDeviation="2"/>
<feComposite in2="hardAlpha" operator="out"/>
<feColorMatrix type="matrix" values="0 0 0 0 0 0 0 0 0 0 0 0 0 0 0 0 0 0 0.25 0"/>
<feBlend mode="normal" in2="BackgroundImageFix" result="effect1_dropShadow_18370_9"/>
<feColorMatrix in="SourceAlpha" type="matrix" values="0 0 0 0 0 0 0 0 0 0 0 0 0 0 0 0 0 0 127 0" result="hardAlpha"/>
<feOffset dy="4"/>
<feGaussianBlur stdDeviation="2"/>
<feComposite in2="hardAlpha" operator="out"/>
<feColorMatrix type="matrix" values="0 0 0 0 0 0 0 0 0 0 0 0 0 0 0 0 0 0 0.25 0"/>
<feBlend mode="normal" in2="effect1_dropShadow_18370_9" result="effect2_dropShadow_18370_9"/>
<feBlend mode="normal" in="SourceGraphic" in2="effect2_dropShadow_18370_9" result="shape"/>
</filter>
<linearGradient id="paint0_linear_18370_9" x1="15" y1="-1" x2="15" y2="23" gradientUnits="userSpaceOnUse">
<stop stop-color="#BC9CFF"/>
<stop offset="1" stop-color="#8BA4F9"/>
</linearGradient>
</defs>
</svg>
