<svg width="56" height="16" viewBox="0 0 56 16" fill="none" xmlns="http://www.w3.org/2000/svg">
<mask id="path-1-outside-1_18374_1194" maskUnits="userSpaceOnUse" x="0.5" y="0.333252" width="56" height="15" fill="black">
<rect fill="white" x="0.5" y="0.333252" width="56" height="15"/>
<path d="M11.335 1.36825C11.5567 1.36825 11.7375 1.44409 11.8775 1.59575C12.0292 1.73575 12.105 1.91659 12.105 2.13825C12.105 2.34825 12.0292 2.52909 11.8775 2.68075C11.7375 2.83242 11.5567 2.90825 11.335 2.90825H7.5725V13.4083C7.5725 13.6299 7.49667 13.8166 7.345 13.9683C7.205 14.1083 7.02417 14.1783 6.8025 14.1783C6.5925 14.1783 6.41167 14.1083 6.26 13.9683C6.10833 13.8166 6.0325 13.6299 6.0325 13.4083V2.90825H2.27C2.06 2.90825 1.87917 2.83242 1.7275 2.68075C1.57583 2.52909 1.5 2.34825 1.5 2.13825C1.5 1.91659 1.57583 1.73575 1.7275 1.59575C1.87917 1.44409 2.06 1.36825 2.27 1.36825H11.335Z"/>
<path d="M17.9076 1.36825C18.7943 1.36825 19.6284 1.53742 20.4101 1.87575C21.2034 2.21409 21.8918 2.67492 22.4751 3.25825C23.0701 3.84159 23.5368 4.52992 23.8751 5.32325C24.2134 6.10492 24.3826 6.93909 24.3826 7.82575C24.3826 8.86409 24.161 9.82075 23.7176 10.6958C23.2743 11.5708 22.6735 12.3058 21.9151 12.9008C21.9151 12.9008 21.9035 12.9124 21.8801 12.9358C21.3201 13.3558 20.7076 13.6883 20.0426 13.9333C19.3776 14.1666 18.6659 14.2833 17.9076 14.2833C17.0209 14.2833 16.1868 14.1141 15.4051 13.7758C14.6234 13.4374 13.9351 12.9766 13.3401 12.3933C12.7568 11.8099 12.296 11.1274 11.9576 10.3458C11.6193 9.56409 11.4501 8.72409 11.4501 7.82575C11.4501 6.84575 11.6484 5.94159 12.0451 5.11325C12.4418 4.27325 12.9843 3.55575 13.6726 2.96075L13.7426 2.89075C13.7543 2.89075 13.7718 2.87909 13.7951 2.85575C14.3551 2.38909 14.9851 2.02742 15.6851 1.77075C16.3851 1.50242 17.1259 1.36825 17.9076 1.36825ZM17.9076 12.7433C18.3509 12.7433 18.771 12.6908 19.1676 12.5858C19.576 12.4691 19.9609 12.3116 20.3226 12.1133L14.1801 4.64075C13.8068 5.07242 13.5151 5.56242 13.3051 6.11075C13.0951 6.64742 12.9901 7.21909 12.9901 7.82575C12.9901 8.50242 13.1184 9.13825 13.3751 9.73325C13.6318 10.3283 13.9818 10.8533 14.4251 11.3083C14.8801 11.7516 15.4051 12.1016 16.0001 12.3583C16.5951 12.6149 17.2309 12.7433 17.9076 12.7433ZM21.5301 11.1508C21.9385 10.7074 22.2535 10.2058 22.4751 9.64575C22.7084 9.07409 22.8251 8.46742 22.8251 7.82575C22.8251 7.14909 22.6968 6.51325 22.4401 5.91825C22.1834 5.32325 21.8276 4.80409 21.3726 4.36075C20.9293 3.90575 20.4101 3.54992 19.8151 3.29325C19.2201 3.03659 18.5843 2.90825 17.9076 2.90825C17.4409 2.90825 16.9918 2.97242 16.5601 3.10075C16.1284 3.21742 15.7259 3.39242 15.3526 3.62575L21.5301 11.1508Z"/>
<path d="M31.351 8.63075C31.1177 8.63075 30.9194 8.53742 30.756 8.35075L26.2585 2.57575C26.1302 2.41242 26.0777 2.23159 26.101 2.03325C26.1244 1.82325 26.2177 1.65409 26.381 1.52575C26.5444 1.39742 26.7252 1.35075 26.9235 1.38575C27.1335 1.40909 27.3027 1.50242 27.431 1.66575L31.351 6.67075L35.1835 1.75325C35.3119 1.58992 35.4752 1.49659 35.6735 1.47325C35.8835 1.44992 36.0702 1.50242 36.2335 1.63075C36.3969 1.75909 36.4902 1.92825 36.5135 2.13825C36.5369 2.33659 36.4844 2.51742 36.356 2.68075L31.946 8.35075C31.7944 8.53742 31.596 8.63075 31.351 8.63075ZM36.2685 14.2658C36.2219 14.2658 36.146 14.2599 36.041 14.2483C35.9477 14.2366 35.8369 14.2074 35.7085 14.1608C35.5802 14.1024 35.4402 14.0266 35.2885 13.9333C35.1485 13.8283 35.0085 13.6883 34.8685 13.5133L31.351 8.98075L27.5185 13.9158C27.3902 14.0791 27.221 14.1724 27.011 14.1958C26.8127 14.2191 26.6319 14.1666 26.4685 14.0383C26.3052 13.9099 26.2119 13.7466 26.1885 13.5483C26.1652 13.3383 26.2177 13.1516 26.346 12.9883L30.756 7.31825C30.896 7.13159 31.0885 7.03825 31.3335 7.03825C31.5902 7.03825 31.7944 7.13159 31.946 7.31825L36.041 12.5683C36.0994 12.6499 36.1519 12.7024 36.1985 12.7258C36.2452 12.7491 36.2802 12.7666 36.3035 12.7783C36.5019 12.7783 36.6652 12.8483 36.7935 12.9883C36.9335 13.1166 37.0094 13.2799 37.021 13.4783C37.0444 13.6883 36.986 13.8691 36.846 14.0208C36.706 14.1724 36.531 14.2541 36.321 14.2658H36.2685Z"/>
<path d="M40.7343 14.2658C40.5127 14.2658 40.326 14.1899 40.1743 14.0383C40.0226 13.8866 39.9468 13.6999 39.9468 13.4783V2.10325C39.9468 1.89325 40.0226 1.71242 40.1743 1.56075C40.326 1.40909 40.5127 1.33325 40.7343 1.33325C40.9443 1.33325 41.1251 1.40909 41.2768 1.56075C41.4285 1.71242 41.5043 1.89325 41.5043 2.10325V13.4783C41.5043 13.6999 41.4285 13.8866 41.2768 14.0383C41.1251 14.1899 40.9443 14.2658 40.7343 14.2658Z"/>
<path d="M53.9377 14.2308C53.681 14.2308 53.4827 14.1316 53.3427 13.9333L46.0452 4.34325V13.4783C46.0452 13.6883 45.9693 13.8691 45.8177 14.0208C45.6777 14.1608 45.5027 14.2308 45.2927 14.2308C45.0943 14.2308 44.9193 14.1608 44.7677 14.0208C44.616 13.8691 44.5402 13.6883 44.5402 13.4783V2.12075C44.5402 1.95742 44.5868 1.81159 44.6802 1.68325C44.7735 1.55492 44.9018 1.46742 45.0652 1.42075C45.2168 1.36242 45.3685 1.35659 45.5202 1.40325C45.6718 1.44992 45.8002 1.53742 45.9052 1.66575L53.1852 11.2733V2.12075C53.1852 1.92242 53.2552 1.74742 53.3952 1.59575C53.5468 1.44409 53.7277 1.36825 53.9377 1.36825C54.1477 1.36825 54.3227 1.44409 54.4627 1.59575C54.6143 1.74742 54.6902 1.92242 54.6902 2.12075V13.4783C54.6902 13.6416 54.6435 13.7874 54.5502 13.9158C54.4568 14.0441 54.3343 14.1374 54.1827 14.1958C54.066 14.2191 53.9843 14.2308 53.9377 14.2308Z"/>
</mask>
<path d="M11.335 1.36825C11.5567 1.36825 11.7375 1.44409 11.8775 1.59575C12.0292 1.73575 12.105 1.91659 12.105 2.13825C12.105 2.34825 12.0292 2.52909 11.8775 2.68075C11.7375 2.83242 11.5567 2.90825 11.335 2.90825H7.5725V13.4083C7.5725 13.6299 7.49667 13.8166 7.345 13.9683C7.205 14.1083 7.02417 14.1783 6.8025 14.1783C6.5925 14.1783 6.41167 14.1083 6.26 13.9683C6.10833 13.8166 6.0325 13.6299 6.0325 13.4083V2.90825H2.27C2.06 2.90825 1.87917 2.83242 1.7275 2.68075C1.57583 2.52909 1.5 2.34825 1.5 2.13825C1.5 1.91659 1.57583 1.73575 1.7275 1.59575C1.87917 1.44409 2.06 1.36825 2.27 1.36825H11.335Z" fill="#1F2041"/>
<path d="M17.9076 1.36825C18.7943 1.36825 19.6284 1.53742 20.4101 1.87575C21.2034 2.21409 21.8918 2.67492 22.4751 3.25825C23.0701 3.84159 23.5368 4.52992 23.8751 5.32325C24.2134 6.10492 24.3826 6.93909 24.3826 7.82575C24.3826 8.86409 24.161 9.82075 23.7176 10.6958C23.2743 11.5708 22.6735 12.3058 21.9151 12.9008C21.9151 12.9008 21.9035 12.9124 21.8801 12.9358C21.3201 13.3558 20.7076 13.6883 20.0426 13.9333C19.3776 14.1666 18.6659 14.2833 17.9076 14.2833C17.0209 14.2833 16.1868 14.1141 15.4051 13.7758C14.6234 13.4374 13.9351 12.9766 13.3401 12.3933C12.7568 11.8099 12.296 11.1274 11.9576 10.3458C11.6193 9.56409 11.4501 8.72409 11.4501 7.82575C11.4501 6.84575 11.6484 5.94159 12.0451 5.11325C12.4418 4.27325 12.9843 3.55575 13.6726 2.96075L13.7426 2.89075C13.7543 2.89075 13.7718 2.87909 13.7951 2.85575C14.3551 2.38909 14.9851 2.02742 15.6851 1.77075C16.3851 1.50242 17.1259 1.36825 17.9076 1.36825ZM17.9076 12.7433C18.3509 12.7433 18.771 12.6908 19.1676 12.5858C19.576 12.4691 19.9609 12.3116 20.3226 12.1133L14.1801 4.64075C13.8068 5.07242 13.5151 5.56242 13.3051 6.11075C13.0951 6.64742 12.9901 7.21909 12.9901 7.82575C12.9901 8.50242 13.1184 9.13825 13.3751 9.73325C13.6318 10.3283 13.9818 10.8533 14.4251 11.3083C14.8801 11.7516 15.4051 12.1016 16.0001 12.3583C16.5951 12.6149 17.2309 12.7433 17.9076 12.7433ZM21.5301 11.1508C21.9385 10.7074 22.2535 10.2058 22.4751 9.64575C22.7084 9.07409 22.8251 8.46742 22.8251 7.82575C22.8251 7.14909 22.6968 6.51325 22.4401 5.91825C22.1834 5.32325 21.8276 4.80409 21.3726 4.36075C20.9293 3.90575 20.4101 3.54992 19.8151 3.29325C19.2201 3.03659 18.5843 2.90825 17.9076 2.90825C17.4409 2.90825 16.9918 2.97242 16.5601 3.10075C16.1284 3.21742 15.7259 3.39242 15.3526 3.62575L21.5301 11.1508Z" fill="#1F2041"/>
<path d="M31.351 8.63075C31.1177 8.63075 30.9194 8.53742 30.756 8.35075L26.2585 2.57575C26.1302 2.41242 26.0777 2.23159 26.101 2.03325C26.1244 1.82325 26.2177 1.65409 26.381 1.52575C26.5444 1.39742 26.7252 1.35075 26.9235 1.38575C27.1335 1.40909 27.3027 1.50242 27.431 1.66575L31.351 6.67075L35.1835 1.75325C35.3119 1.58992 35.4752 1.49659 35.6735 1.47325C35.8835 1.44992 36.0702 1.50242 36.2335 1.63075C36.3969 1.75909 36.4902 1.92825 36.5135 2.13825C36.5369 2.33659 36.4844 2.51742 36.356 2.68075L31.946 8.35075C31.7944 8.53742 31.596 8.63075 31.351 8.63075ZM36.2685 14.2658C36.2219 14.2658 36.146 14.2599 36.041 14.2483C35.9477 14.2366 35.8369 14.2074 35.7085 14.1608C35.5802 14.1024 35.4402 14.0266 35.2885 13.9333C35.1485 13.8283 35.0085 13.6883 34.8685 13.5133L31.351 8.98075L27.5185 13.9158C27.3902 14.0791 27.221 14.1724 27.011 14.1958C26.8127 14.2191 26.6319 14.1666 26.4685 14.0383C26.3052 13.9099 26.2119 13.7466 26.1885 13.5483C26.1652 13.3383 26.2177 13.1516 26.346 12.9883L30.756 7.31825C30.896 7.13159 31.0885 7.03825 31.3335 7.03825C31.5902 7.03825 31.7944 7.13159 31.946 7.31825L36.041 12.5683C36.0994 12.6499 36.1519 12.7024 36.1985 12.7258C36.2452 12.7491 36.2802 12.7666 36.3035 12.7783C36.5019 12.7783 36.6652 12.8483 36.7935 12.9883C36.9335 13.1166 37.0094 13.2799 37.021 13.4783C37.0444 13.6883 36.986 13.8691 36.846 14.0208C36.706 14.1724 36.531 14.2541 36.321 14.2658H36.2685Z" fill="#1F2041"/>
<path d="M40.7343 14.2658C40.5127 14.2658 40.326 14.1899 40.1743 14.0383C40.0226 13.8866 39.9468 13.6999 39.9468 13.4783V2.10325C39.9468 1.89325 40.0226 1.71242 40.1743 1.56075C40.326 1.40909 40.5127 1.33325 40.7343 1.33325C40.9443 1.33325 41.1251 1.40909 41.2768 1.56075C41.4285 1.71242 41.5043 1.89325 41.5043 2.10325V13.4783C41.5043 13.6999 41.4285 13.8866 41.2768 14.0383C41.1251 14.1899 40.9443 14.2658 40.7343 14.2658Z" fill="#1F2041"/>
<path d="M53.9377 14.2308C53.681 14.2308 53.4827 14.1316 53.3427 13.9333L46.0452 4.34325V13.4783C46.0452 13.6883 45.9693 13.8691 45.8177 14.0208C45.6777 14.1608 45.5027 14.2308 45.2927 14.2308C45.0943 14.2308 44.9193 14.1608 44.7677 14.0208C44.616 13.8691 44.5402 13.6883 44.5402 13.4783V2.12075C44.5402 1.95742 44.5868 1.81159 44.6802 1.68325C44.7735 1.55492 44.9018 1.46742 45.0652 1.42075C45.2168 1.36242 45.3685 1.35659 45.5202 1.40325C45.6718 1.44992 45.8002 1.53742 45.9052 1.66575L53.1852 11.2733V2.12075C53.1852 1.92242 53.2552 1.74742 53.3952 1.59575C53.5468 1.44409 53.7277 1.36825 53.9377 1.36825C54.1477 1.36825 54.3227 1.44409 54.4627 1.59575C54.6143 1.74742 54.6902 1.92242 54.6902 2.12075V13.4783C54.6902 13.6416 54.6435 13.7874 54.5502 13.9158C54.4568 14.0441 54.3343 14.1374 54.1827 14.1958C54.066 14.2191 53.9843 14.2308 53.9377 14.2308Z" fill="#1F2041"/>
<path d="M11.335 1.36825C11.5567 1.36825 11.7375 1.44409 11.8775 1.59575C12.0292 1.73575 12.105 1.91659 12.105 2.13825C12.105 2.34825 12.0292 2.52909 11.8775 2.68075C11.7375 2.83242 11.5567 2.90825 11.335 2.90825H7.5725V13.4083C7.5725 13.6299 7.49667 13.8166 7.345 13.9683C7.205 14.1083 7.02417 14.1783 6.8025 14.1783C6.5925 14.1783 6.41167 14.1083 6.26 13.9683C6.10833 13.8166 6.0325 13.6299 6.0325 13.4083V2.90825H2.27C2.06 2.90825 1.87917 2.83242 1.7275 2.68075C1.57583 2.52909 1.5 2.34825 1.5 2.13825C1.5 1.91659 1.57583 1.73575 1.7275 1.59575C1.87917 1.44409 2.06 1.36825 2.27 1.36825H11.335Z" stroke="black" stroke-width="2" mask="url(#path-1-outside-1_18374_1194)"/>
<path d="M17.9076 1.36825C18.7943 1.36825 19.6284 1.53742 20.4101 1.87575C21.2034 2.21409 21.8918 2.67492 22.4751 3.25825C23.0701 3.84159 23.5368 4.52992 23.8751 5.32325C24.2134 6.10492 24.3826 6.93909 24.3826 7.82575C24.3826 8.86409 24.161 9.82075 23.7176 10.6958C23.2743 11.5708 22.6735 12.3058 21.9151 12.9008C21.9151 12.9008 21.9035 12.9124 21.8801 12.9358C21.3201 13.3558 20.7076 13.6883 20.0426 13.9333C19.3776 14.1666 18.6659 14.2833 17.9076 14.2833C17.0209 14.2833 16.1868 14.1141 15.4051 13.7758C14.6234 13.4374 13.9351 12.9766 13.3401 12.3933C12.7568 11.8099 12.296 11.1274 11.9576 10.3458C11.6193 9.56409 11.4501 8.72409 11.4501 7.82575C11.4501 6.84575 11.6484 5.94159 12.0451 5.11325C12.4418 4.27325 12.9843 3.55575 13.6726 2.96075L13.7426 2.89075C13.7543 2.89075 13.7718 2.87909 13.7951 2.85575C14.3551 2.38909 14.9851 2.02742 15.6851 1.77075C16.3851 1.50242 17.1259 1.36825 17.9076 1.36825ZM17.9076 12.7433C18.3509 12.7433 18.771 12.6908 19.1676 12.5858C19.576 12.4691 19.9609 12.3116 20.3226 12.1133L14.1801 4.64075C13.8068 5.07242 13.5151 5.56242 13.3051 6.11075C13.0951 6.64742 12.9901 7.21909 12.9901 7.82575C12.9901 8.50242 13.1184 9.13825 13.3751 9.73325C13.6318 10.3283 13.9818 10.8533 14.4251 11.3083C14.8801 11.7516 15.4051 12.1016 16.0001 12.3583C16.5951 12.6149 17.2309 12.7433 17.9076 12.7433ZM21.5301 11.1508C21.9385 10.7074 22.2535 10.2058 22.4751 9.64575C22.7084 9.07409 22.8251 8.46742 22.8251 7.82575C22.8251 7.14909 22.6968 6.51325 22.4401 5.91825C22.1834 5.32325 21.8276 4.80409 21.3726 4.36075C20.9293 3.90575 20.4101 3.54992 19.8151 3.29325C19.2201 3.03659 18.5843 2.90825 17.9076 2.90825C17.4409 2.90825 16.9918 2.97242 16.5601 3.10075C16.1284 3.21742 15.7259 3.39242 15.3526 3.62575L21.5301 11.1508Z" stroke="black" stroke-width="2" mask="url(#path-1-outside-1_18374_1194)"/>
<path d="M31.351 8.63075C31.1177 8.63075 30.9194 8.53742 30.756 8.35075L26.2585 2.57575C26.1302 2.41242 26.0777 2.23159 26.101 2.03325C26.1244 1.82325 26.2177 1.65409 26.381 1.52575C26.5444 1.39742 26.7252 1.35075 26.9235 1.38575C27.1335 1.40909 27.3027 1.50242 27.431 1.66575L31.351 6.67075L35.1835 1.75325C35.3119 1.58992 35.4752 1.49659 35.6735 1.47325C35.8835 1.44992 36.0702 1.50242 36.2335 1.63075C36.3969 1.75909 36.4902 1.92825 36.5135 2.13825C36.5369 2.33659 36.4844 2.51742 36.356 2.68075L31.946 8.35075C31.7944 8.53742 31.596 8.63075 31.351 8.63075ZM36.2685 14.2658C36.2219 14.2658 36.146 14.2599 36.041 14.2483C35.9477 14.2366 35.8369 14.2074 35.7085 14.1608C35.5802 14.1024 35.4402 14.0266 35.2885 13.9333C35.1485 13.8283 35.0085 13.6883 34.8685 13.5133L31.351 8.98075L27.5185 13.9158C27.3902 14.0791 27.221 14.1724 27.011 14.1958C26.8127 14.2191 26.6319 14.1666 26.4685 14.0383C26.3052 13.9099 26.2119 13.7466 26.1885 13.5483C26.1652 13.3383 26.2177 13.1516 26.346 12.9883L30.756 7.31825C30.896 7.13159 31.0885 7.03825 31.3335 7.03825C31.5902 7.03825 31.7944 7.13159 31.946 7.31825L36.041 12.5683C36.0994 12.6499 36.1519 12.7024 36.1985 12.7258C36.2452 12.7491 36.2802 12.7666 36.3035 12.7783C36.5019 12.7783 36.6652 12.8483 36.7935 12.9883C36.9335 13.1166 37.0094 13.2799 37.021 13.4783C37.0444 13.6883 36.986 13.8691 36.846 14.0208C36.706 14.1724 36.531 14.2541 36.321 14.2658H36.2685Z" stroke="black" stroke-width="2" mask="url(#path-1-outside-1_18374_1194)"/>
<path d="M40.7343 14.2658C40.5127 14.2658 40.326 14.1899 40.1743 14.0383C40.0226 13.8866 39.9468 13.6999 39.9468 13.4783V2.10325C39.9468 1.89325 40.0226 1.71242 40.1743 1.56075C40.326 1.40909 40.5127 1.33325 40.7343 1.33325C40.9443 1.33325 41.1251 1.40909 41.2768 1.56075C41.4285 1.71242 41.5043 1.89325 41.5043 2.10325V13.4783C41.5043 13.6999 41.4285 13.8866 41.2768 14.0383C41.1251 14.1899 40.9443 14.2658 40.7343 14.2658Z" stroke="black" stroke-width="2" mask="url(#path-1-outside-1_18374_1194)"/>
<path d="M53.9377 14.2308C53.681 14.2308 53.4827 14.1316 53.3427 13.9333L46.0452 4.34325V13.4783C46.0452 13.6883 45.9693 13.8691 45.8177 14.0208C45.6777 14.1608 45.5027 14.2308 45.2927 14.2308C45.0943 14.2308 44.9193 14.1608 44.7677 14.0208C44.616 13.8691 44.5402 13.6883 44.5402 13.4783V2.12075C44.5402 1.95742 44.5868 1.81159 44.6802 1.68325C44.7735 1.55492 44.9018 1.46742 45.0652 1.42075C45.2168 1.36242 45.3685 1.35659 45.5202 1.40325C45.6718 1.44992 45.8002 1.53742 45.9052 1.66575L53.1852 11.2733V2.12075C53.1852 1.92242 53.2552 1.74742 53.3952 1.59575C53.5468 1.44409 53.7277 1.36825 53.9377 1.36825C54.1477 1.36825 54.3227 1.44409 54.4627 1.59575C54.6143 1.74742 54.6902 1.92242 54.6902 2.12075V13.4783C54.6902 13.6416 54.6435 13.7874 54.5502 13.9158C54.4568 14.0441 54.3343 14.1374 54.1827 14.1958C54.066 14.2191 53.9843 14.2308 53.9377 14.2308Z" stroke="black" stroke-width="2" mask="url(#path-1-outside-1_18374_1194)"/>
</svg>
